# xmcd
#
# Track frame offsets:
#	150
#	12842
#	26481
#	41819
#	59658
#	74082
#	89875
#	103077
#	117989
#	134968
#	152943
#	166680
#	178323
#	191124
#
# Disc length: 2728 seconds
#
# Revision: 1
# Processed by: cddbd v1.5.2PL0 Copyright (c) Steve Scherf et al.
# Submitted via: audiograbber 1.83.01
#
DISCID=dc0aa60e
DTITLE=Barbarella and Red Rock - Three Days To Live
DYEAR=2014
DGENRE=Country
TTITLE0=His and Hers
TTITLE1=Gettin' Warmer
TTITLE2=Three days to live
TTITLE3=Simply Complex
TTITLE4=Good old boys are us night
TTITLE5=Last teardrop
TTITLE6=Building walls
TTITLE7=Take it from me
TTITLE8=King of the Kenworth
TTITLE9=50 cards and a case of beer
TTITLE10=Carver Holler
TTITLE11=Things I can't turn down
TTITLE12=I saw stars
TTITLE13=When you said you were in love
EXTD=
EXTT0=
EXTT1=
EXTT2=
EXTT3=
EXTT4=
EXTT5=
EXTT6=
EXTT7=
EXTT8=
EXTT9=
EXTT10=
EXTT11=
EXTT12=
EXTT13=
PLAYORDER=
